<svg width="60" height="19" viewBox="0 0 60 19" fill="none" xmlns="http://www.w3.org/2000/svg">
<path d="M8 6.9V7.65V6.9ZM9.05 5.85H9.8H9.05ZM6.95 5.85H6.2H6.95ZM9.05 12.15H9.8H9.05ZM8 11.1V10.35V11.1ZM6.95 12.15H6.2H6.95ZM4.85 10.05V10.8V10.05ZM5.9 9H6.65H5.9ZM4.85 7.95V7.2V7.95ZM11.15 10.05V10.8V10.05ZM11.15 7.95V7.2V7.95ZM10.1 9H9.35H10.1ZM15 16.75C15.4142 16.75 15.75 16.4142 15.75 16C15.75 15.5858 15.4142 15.25 15 15.25V16.75ZM8 16.75C12.2803 16.75 15.75 13.2803 15.75 9H14.25C14.25 12.4519 11.4519 15.25 8 15.25V16.75ZM15.75 9C15.75 4.71969 12.2803 1.25 8 1.25V2.75C11.4519 2.75 14.25 5.54811 14.25 9H15.75ZM8 1.25C3.71969 1.25 0.25 4.71969 0.25 9H1.75C1.75 5.54811 4.54811 2.75 8 2.75V1.25ZM0.25 9C0.25 13.2803 3.71969 16.75 8 16.75V15.25C4.54811 15.25 1.75 12.4519 1.75 9H0.25ZM8 7.65C8.47739 7.65 8.93523 7.46036 9.27279 7.12279L8.21213 6.06213C8.15587 6.11839 8.07957 6.15 8 6.15V7.65ZM9.27279 7.12279C9.61036 6.78523 9.8 6.32739 9.8 5.85H8.3C8.3 5.92956 8.26839 6.00587 8.21213 6.06213L9.27279 7.12279ZM9.8 5.85C9.8 5.37261 9.61036 4.91477 9.27279 4.57721L8.21213 5.63787C8.26839 5.69413 8.3 5.77043 8.3 5.85H9.8ZM9.27279 4.57721C8.93523 4.23964 8.47739 4.05 8 4.05V5.55C8.07957 5.55 8.15587 5.58161 8.21213 5.63787L9.27279 4.57721ZM8 4.05C7.52261 4.05 7.06477 4.23964 6.72721 4.57721L7.78787 5.63787C7.84413 5.58161 7.92043 5.55 8 5.55V4.05ZM6.72721 4.57721C6.38964 4.91477 6.2 5.37261 6.2 5.85H7.7C7.7 5.77043 7.73161 5.69413 7.78787 5.63787L6.72721 4.57721ZM6.2 5.85C6.2 6.32739 6.38964 6.78523 6.72721 7.12279L7.78787 6.06213C7.73161 6.00587 7.7 5.92956 7.7 5.85H6.2ZM6.72721 7.12279C7.06477 7.46036 7.52261 7.65 8 7.65V6.15C7.92043 6.15 7.84413 6.11839 7.78787 6.06213L6.72721 7.12279ZM8 13.95C8.47739 13.95 8.93523 13.7604 9.27279 13.4228L8.21213 12.3621C8.15587 12.4184 8.07956 12.45 8 12.45V13.95ZM9.27279 13.4228C9.61036 13.0852 9.8 12.6274 9.8 12.15H8.3C8.3 12.2296 8.26839 12.3059 8.21213 12.3621L9.27279 13.4228ZM9.8 12.15C9.8 11.6726 9.61036 11.2148 9.27279 10.8772L8.21213 11.9379C8.26839 11.9941 8.3 12.0704 8.3 12.15H9.8ZM9.27279 10.8772C8.93523 10.5396 8.47739 10.35 8 10.35V11.85C8.07957 11.85 8.15587 11.8816 8.21213 11.9379L9.27279 10.8772ZM8 10.35C7.52261 10.35 7.06477 10.5396 6.72721 10.8772L7.78787 11.9379C7.84413 11.8816 7.92043 11.85 8 11.85V10.35ZM6.72721 10.8772C6.38964 11.2148 6.2 11.6726 6.2 12.15H7.7C7.7 12.0704 7.73161 11.9941 7.78787 11.9379L6.72721 10.8772ZM6.2 12.15C6.2 12.6274 6.38964 13.0852 6.72721 13.4228L7.78787 12.3621C7.73161 12.3059 7.7 12.2296 7.7 12.15H6.2ZM6.72721 13.4228C7.06477 13.7604 7.52261 13.95 8 13.95V12.45C7.92044 12.45 7.84413 12.4184 7.78787 12.3621L6.72721 13.4228ZM4.85 10.8C5.32739 10.8 5.78523 10.6104 6.12279 10.2728L5.06213 9.21213C5.00587 9.26839 4.92956 9.3 4.85 9.3V10.8ZM6.12279 10.2728C6.46036 9.93523 6.65 9.47739 6.65 9H5.15C5.15 9.07956 5.11839 9.15587 5.06213 9.21213L6.12279 10.2728ZM6.65 9C6.65 8.52261 6.46036 8.06477 6.12279 7.72721L5.06213 8.78787C5.11839 8.84413 5.15 8.92043 5.15 9H6.65ZM6.12279 7.72721C5.78523 7.38964 5.32739 7.2 4.85 7.2V8.7C4.92957 8.7 5.00587 8.73161 5.06213 8.78787L6.12279 7.72721ZM4.85 7.2C4.37261 7.2 3.91477 7.38964 3.57721 7.72721L4.63787 8.78787C4.69413 8.73161 4.77043 8.7 4.85 8.7V7.2ZM3.57721 7.72721C3.23964 8.06477 3.05 8.52261 3.05 9H4.55C4.55 8.92043 4.58161 8.84413 4.63787 8.78787L3.57721 7.72721ZM3.05 9C3.05 9.47739 3.23964 9.93523 3.57721 10.2728L4.63787 9.21213C4.58161 9.15587 4.55 9.07956 4.55 9H3.05ZM3.57721 10.2728C3.91477 10.6104 4.37261 10.8 4.85 10.8V9.3C4.77043 9.3 4.69413 9.26839 4.63787 9.21213L3.57721 10.2728ZM11.15 10.8C11.6274 10.8 12.0852 10.6104 12.4228 10.2728L11.3621 9.21213C11.3059 9.26839 11.2296 9.3 11.15 9.3V10.8ZM12.4228 10.2728C12.7604 9.93523 12.95 9.47739 12.95 9H11.45C11.45 9.07956 11.4184 9.15587 11.3621 9.21213L12.4228 10.2728ZM12.95 9C12.95 8.52261 12.7604 8.06477 12.4228 7.72721L11.3621 8.78787C11.4184 8.84413 11.45 8.92044 11.45 9H12.95ZM12.4228 7.72721C12.0852 7.38964 11.6274 7.2 11.15 7.2V8.7C11.2296 8.7 11.3059 8.73161 11.3621 8.78787L12.4228 7.72721ZM11.15 7.2C10.6726 7.2 10.2148 7.38964 9.87721 7.72721L10.9379 8.78787C10.9941 8.73161 11.0704 8.7 11.15 8.7V7.2ZM9.87721 7.72721C9.53964 8.06477 9.35 8.52261 9.35 9H10.85C10.85 8.92043 10.8816 8.84413 10.9379 8.78787L9.87721 7.72721ZM9.35 9C9.35 9.47739 9.53964 9.93523 9.87721 10.2728L10.9379 9.21213C10.8816 9.15587 10.85 9.07956 10.85 9H9.35ZM9.87721 10.2728C10.2148 10.6104 10.6726 10.8 11.15 10.8V9.3C11.0704 9.3 10.9941 9.26839 10.9379 9.21213L9.87721 10.2728ZM8 16.75L15 16.75V15.25L8 15.25V16.75Z" fill="#FAF9F9"/>
<path d="M22.2832 6.18164C21.987 6.24544 21.7135 6.30241 21.4629 6.35254C21.3535 6.37533 21.2441 6.39583 21.1348 6.41406C21.0299 6.43229 20.9297 6.45052 20.834 6.46875C20.7383 6.48242 20.6517 6.49382 20.5742 6.50293C20.5013 6.51204 20.4466 6.5166 20.4102 6.5166C20.3327 6.5166 20.2666 6.50293 20.2119 6.47559C20.1618 6.44368 20.1367 6.38216 20.1367 6.29102V5.52539C20.1367 5.4388 20.1732 5.36133 20.2461 5.29297C20.319 5.22005 20.4329 5.18359 20.5879 5.18359H29.0713C29.2262 5.18359 29.3402 5.22005 29.4131 5.29297C29.486 5.36133 29.5225 5.4388 29.5225 5.52539V6.29102C29.5225 6.38216 29.4951 6.44368 29.4404 6.47559C29.3903 6.50293 29.3265 6.5166 29.249 6.5166C29.208 6.5166 29.151 6.51204 29.0781 6.50293C29.0052 6.49382 28.9209 6.48242 28.8252 6.46875C28.7295 6.45052 28.627 6.43229 28.5176 6.41406C28.4128 6.39583 28.3057 6.37533 28.1963 6.35254C27.9456 6.30241 27.6722 6.24544 27.376 6.18164V14.0635C27.376 14.2184 27.3623 14.3551 27.335 14.4736C27.3076 14.5876 27.2552 14.6855 27.1777 14.7676C27.1048 14.8451 27.0023 14.9043 26.8701 14.9453C26.738 14.9818 26.5693 15 26.3643 15H23.3154C23.1012 15 22.9258 14.9795 22.7891 14.9385C22.6569 14.8975 22.5521 14.8382 22.4746 14.7607C22.4017 14.6833 22.3516 14.5853 22.3242 14.4668C22.2969 14.3483 22.2832 14.2093 22.2832 14.0498V6.18164ZM26.7949 6.03809L26.2617 5.92188V14.4258C26.3711 14.4258 26.46 14.4235 26.5283 14.4189C26.5967 14.4098 26.6514 14.3916 26.6924 14.3643C26.7334 14.3324 26.7607 14.2891 26.7744 14.2344C26.7881 14.1751 26.7949 14.0931 26.7949 13.9883V6.03809ZM34.4121 5.18359C34.4941 5.18359 34.5648 5.19499 34.624 5.21777C34.6833 5.236 34.7357 5.27018 34.7812 5.32031C34.8314 5.37044 34.877 5.43652 34.918 5.51855C34.959 5.60059 35.0023 5.70085 35.0479 5.81934L38.1855 14.2002C38.2083 14.264 38.2243 14.321 38.2334 14.3711C38.2425 14.4212 38.2471 14.4714 38.2471 14.5215C38.2471 14.6855 38.1969 14.8063 38.0967 14.8838C38.001 14.9613 37.8984 15 37.7891 15H33.9131C33.7946 15 33.6943 14.9863 33.6123 14.959C33.5348 14.9271 33.4688 14.8906 33.4141 14.8496C33.3594 14.8086 33.3161 14.7653 33.2842 14.7197C33.2568 14.6742 33.2386 14.6331 33.2295 14.5967L33.1543 14.3574H31.2334L31.1855 14.5625C31.1719 14.6309 31.1559 14.6924 31.1377 14.7471C31.1195 14.7972 31.0967 14.8428 31.0693 14.8838C31.042 14.9202 31.0033 14.9499 30.9531 14.9727C30.9076 14.9909 30.846 15 30.7686 15H30.0645C29.9186 15 29.8457 14.943 29.8457 14.8291C29.8457 14.7881 29.8525 14.7402 29.8662 14.6855C29.8844 14.6263 29.9072 14.5579 29.9346 14.4805L32.792 5.83301C32.8604 5.61882 32.9378 5.45931 33.0244 5.35449C33.111 5.24967 33.234 5.19271 33.3936 5.18359H34.4121ZM31.4453 13.5166H32.9219L32.1631 10.8438L31.4453 13.5166ZM34.4873 5.97656C34.4508 5.88086 34.4053 5.82161 34.3506 5.79883C34.3005 5.77148 34.2116 5.75781 34.084 5.75781H33.8447L37.0781 14.4258H37.4062C37.4883 14.4258 37.543 14.4098 37.5703 14.3779C37.6022 14.3415 37.5999 14.2777 37.5635 14.1865L34.4873 5.97656ZM46.1377 13.1406C45.9645 13.2363 45.7868 13.3161 45.6045 13.3799C45.4268 13.4437 45.2422 13.4961 45.0508 13.5371V14.0498C45.0508 14.1956 45.0348 14.3278 45.0029 14.4463C44.971 14.5602 44.9141 14.6582 44.832 14.7402C44.7546 14.8223 44.6497 14.8861 44.5176 14.9316C44.39 14.9772 44.2282 15 44.0322 15H41.0039C40.7852 15 40.6074 14.9795 40.4707 14.9385C40.334 14.8975 40.2269 14.8382 40.1494 14.7607C40.0719 14.6833 40.0195 14.5853 39.9922 14.4668C39.9648 14.3483 39.9512 14.2093 39.9512 14.0498V6.14062C39.9512 5.98112 39.9648 5.84212 39.9922 5.72363C40.0195 5.60514 40.0719 5.50716 40.1494 5.42969C40.2269 5.34766 40.334 5.28613 40.4707 5.24512C40.6074 5.2041 40.7852 5.18359 41.0039 5.18359H44.0527C44.3809 5.18359 44.7021 5.21094 45.0166 5.26562C45.3356 5.32031 45.6364 5.40918 45.9189 5.53223C46.2061 5.65072 46.4681 5.81022 46.7051 6.01074C46.9466 6.21126 47.154 6.45964 47.3271 6.75586C47.5049 7.04753 47.6416 7.38932 47.7373 7.78125C47.8376 8.17318 47.8877 8.62435 47.8877 9.13477C47.8877 9.57227 47.8604 9.96875 47.8057 10.3242C47.751 10.6797 47.6758 11.001 47.5801 11.2881C47.4844 11.5752 47.3682 11.8304 47.2314 12.0537C47.0993 12.2725 46.9512 12.4661 46.7871 12.6348L48.1543 14.4395C48.1999 14.5033 48.2227 14.5648 48.2227 14.624C48.2227 14.6924 48.1976 14.7516 48.1475 14.8018C48.1019 14.8519 48.0518 14.8929 47.9971 14.9248L47.5869 15.1641C47.555 15.1823 47.5208 15.196 47.4844 15.2051C47.4525 15.2188 47.4183 15.2256 47.3818 15.2256C47.3317 15.2256 47.2816 15.2096 47.2314 15.1777C47.1813 15.1458 47.1357 15.0911 47.0947 15.0137L46.1377 13.1406ZM46.9238 9.25781C46.9238 8.84766 46.8874 8.4694 46.8145 8.12305C46.7415 7.77669 46.6299 7.47135 46.4795 7.20703C46.3291 6.94271 46.1354 6.72396 45.8984 6.55078C45.6615 6.3776 45.3789 6.25911 45.0508 6.19531V12.6416C45.3789 12.5687 45.6615 12.4365 45.8984 12.2451C46.1354 12.0492 46.3291 11.8053 46.4795 11.5137C46.6299 11.222 46.7415 10.887 46.8145 10.5088C46.8874 10.126 46.9238 9.70898 46.9238 9.25781ZM44.4697 6.09277C44.3786 6.08822 44.2829 6.08594 44.1826 6.08594C44.0869 6.08138 44.0049 6.0791 43.9365 6.0791V14.4258C44.0459 14.4258 44.1348 14.4235 44.2031 14.4189C44.2715 14.4098 44.3262 14.3916 44.3672 14.3643C44.4082 14.3324 44.4355 14.2891 44.4492 14.2344C44.4629 14.1751 44.4697 14.0931 44.4697 13.9883V6.09277ZM54.3291 15.2666C53.9645 15.2666 53.5977 15.2347 53.2285 15.1709C52.8639 15.1071 52.513 14.9977 52.1758 14.8428C51.8385 14.6878 51.5241 14.4827 51.2324 14.2275C50.9408 13.9678 50.6855 13.6465 50.4668 13.2637C50.2526 12.8763 50.084 12.4206 49.9609 11.8965C49.8379 11.3678 49.7764 10.7549 49.7764 10.0576C49.7764 9.36491 49.8379 8.75423 49.9609 8.22559C50.084 7.69694 50.2526 7.24121 50.4668 6.8584C50.6855 6.47103 50.9408 6.14974 51.2324 5.89453C51.5241 5.63932 51.8385 5.43652 52.1758 5.28613C52.513 5.13118 52.8639 5.02181 53.2285 4.95801C53.5977 4.89421 53.9645 4.8623 54.3291 4.8623C54.6937 4.8623 55.0605 4.89421 55.4297 4.95801C55.7988 5.02181 56.152 5.13118 56.4893 5.28613C56.8265 5.43652 57.141 5.63932 57.4326 5.89453C57.7243 6.14974 57.9772 6.47103 58.1914 6.8584C58.4056 7.24121 58.5742 7.69694 58.6973 8.22559C58.8203 8.75423 58.8818 9.36491 58.8818 10.0576C58.8818 10.7503 58.8203 11.361 58.6973 11.8896C58.5742 12.4183 58.4056 12.8763 58.1914 13.2637C57.9772 13.6465 57.7243 13.9678 57.4326 14.2275C57.141 14.4827 56.8265 14.6878 56.4893 14.8428C56.152 14.9977 55.7988 15.1071 55.4297 15.1709C55.0605 15.2347 54.6937 15.2666 54.3291 15.2666ZM54.9443 10.0576C54.9443 10.6273 54.9854 11.1035 55.0674 11.4863C55.154 11.8691 55.2679 12.1768 55.4092 12.4092C55.5505 12.6416 55.7077 12.8079 55.8809 12.9082C56.0586 13.0039 56.2409 13.0518 56.4277 13.0518C56.6146 13.0518 56.7969 13.0039 56.9746 12.9082C57.1523 12.8079 57.3096 12.6416 57.4463 12.4092C57.5876 12.1768 57.6992 11.8691 57.7812 11.4863C57.8678 11.1035 57.9111 10.6273 57.9111 10.0576C57.9111 9.48796 57.8678 9.01172 57.7812 8.62891C57.6992 8.24609 57.5876 7.93848 57.4463 7.70605C57.3096 7.47363 57.1523 7.30957 56.9746 7.21387C56.7969 7.11361 56.6146 7.06348 56.4277 7.06348C56.2409 7.06348 56.0586 7.11361 55.8809 7.21387C55.7077 7.30957 55.5505 7.47363 55.4092 7.70605C55.2679 7.93848 55.154 8.24609 55.0674 8.62891C54.9854 9.01172 54.9443 9.48796 54.9443 10.0576ZM54.3633 10.0576C54.3633 9.48796 54.4089 8.99577 54.5 8.58105C54.5957 8.16634 54.7165 7.82227 54.8623 7.54883C55.0081 7.27539 55.1722 7.06803 55.3545 6.92676C55.5413 6.78092 55.7282 6.68978 55.915 6.65332C55.6462 6.66699 55.3841 6.73763 55.1289 6.86523C54.8737 6.99284 54.6458 7.19108 54.4453 7.45996C54.2493 7.72884 54.0921 8.07747 53.9736 8.50586C53.8551 8.92969 53.7959 9.44694 53.7959 10.0576C53.7959 10.6683 53.8551 11.1878 53.9736 11.6162C54.0921 12.04 54.2493 12.3864 54.4453 12.6553C54.6458 12.9242 54.8737 13.1224 55.1289 13.25C55.3841 13.3776 55.6462 13.4482 55.915 13.4619C55.7282 13.43 55.5413 13.3411 55.3545 13.1953C55.1722 13.0495 55.0081 12.8398 54.8623 12.5664C54.7165 12.293 54.5957 11.9489 54.5 11.5342C54.4089 11.1195 54.3633 10.6273 54.3633 10.0576Z" fill="#FAF9F9"/>
</svg>
