<svg width="74" height="24" viewBox="0 0 74 24" fill="none" xmlns="http://www.w3.org/2000/svg">
<path d="M10.12 9.2776L10.12 10.0276L10.12 9.2776ZM11.488 7.9324L12.238 7.9324L11.488 7.9324ZM8.752 7.9324L8.002 7.9324L8.752 7.9324ZM11.488 16.0036L12.238 16.0036L11.488 16.0036ZM10.12 14.6584L10.12 13.9084L10.12 14.6584ZM8.752 16.0036L8.002 16.0036L8.752 16.0036ZM6.016 13.3132L6.016 14.0632L6.016 13.3132ZM7.384 11.968L8.134 11.968L7.384 11.968ZM6.016 10.6228L6.016 9.8728L6.016 10.6228ZM14.224 13.3132L14.224 14.0632L14.224 13.3132ZM14.224 10.6228L14.224 9.8728L14.224 10.6228ZM12.856 11.968L12.106 11.968L12.856 11.968ZM19.24 21.686C19.6542 21.686 19.99 21.3502 19.99 20.936C19.99 20.5218 19.6542 20.186 19.24 20.186L19.24 21.686ZM10.12 21.686C15.5593 21.686 19.99 17.3471 19.99 11.968H18.49C18.49 16.495 14.7547 20.186 10.12 20.186V21.686ZM19.99 11.968C19.99 6.58893 15.5593 2.25 10.12 2.25V3.75C14.7547 3.75 18.49 7.44102 18.49 11.968H19.99ZM10.12 2.25C4.68074 2.25 0.25 6.58893 0.25 11.968H1.75C1.75 7.44102 5.4853 3.75 10.12 3.75V2.25ZM0.25 11.968C0.25 17.3471 4.68074 21.686 10.12 21.686V20.186C5.4853 20.186 1.75 16.495 1.75 11.968H0.25ZM10.12 10.0276C10.6777 10.0276 11.215 9.80987 11.6132 9.41837L10.5615 8.34883C10.4465 8.46188 10.2879 8.5276 10.12 8.5276L10.12 10.0276ZM11.6132 9.41837C12.0117 9.02645 12.238 8.49219 12.238 7.9324L10.738 7.9324C10.738 8.08615 10.676 8.2362 10.5615 8.34883L11.6132 9.41837ZM12.238 7.9324C12.238 7.37261 12.0117 6.83835 11.6132 6.44643L10.5615 7.51597C10.676 7.6286 10.738 7.77865 10.738 7.9324L12.238 7.9324ZM11.6132 6.44643C11.215 6.05493 10.6777 5.8372 10.12 5.8372V7.3372C10.2879 7.3372 10.4465 7.40292 10.5615 7.51597L11.6132 6.44643ZM10.12 5.8372C9.5623 5.8372 9.02496 6.05493 8.62682 6.44643L9.67853 7.51597C9.7935 7.40292 9.95207 7.3372 10.12 7.3372V5.8372ZM8.62682 6.44643C8.22826 6.83835 8.002 7.37261 8.002 7.9324L9.502 7.9324C9.502 7.77865 9.56399 7.6286 9.67853 7.51597L8.62682 6.44643ZM8.002 7.9324C8.002 8.49219 8.22826 9.02645 8.62682 9.41837L9.67853 8.34883C9.56399 8.2362 9.502 8.08615 9.502 7.9324L8.002 7.9324ZM8.62682 9.41837C9.02496 9.80987 9.5623 10.0276 10.12 10.0276V8.5276C9.95207 8.5276 9.7935 8.46188 9.67853 8.34883L8.62682 9.41837ZM10.12 18.0988C10.6777 18.0988 11.215 17.8811 11.6132 17.4896L10.5615 16.42C10.4465 16.5331 10.2879 16.5988 10.12 16.5988V18.0988ZM11.6132 17.4896C12.0117 17.0976 12.238 16.5634 12.238 16.0036L10.738 16.0036C10.738 16.1573 10.676 16.3074 10.5615 16.42L11.6132 17.4896ZM12.238 16.0036C12.238 15.4438 12.0117 14.9095 11.6132 14.5176L10.5615 15.5872C10.676 15.6998 10.738 15.8498 10.738 16.0036L12.238 16.0036ZM11.6132 14.5176C11.215 14.1261 10.6777 13.9084 10.12 13.9084L10.12 15.4084C10.2879 15.4084 10.4465 15.4741 10.5615 15.5872L11.6132 14.5176ZM10.12 13.9084C9.5623 13.9084 9.02496 14.1261 8.62682 14.5176L9.67853 15.5872C9.7935 15.4741 9.95207 15.4084 10.12 15.4084L10.12 13.9084ZM8.62682 14.5176C8.22826 14.9096 8.002 15.4438 8.002 16.0036L9.502 16.0036C9.502 15.8498 9.56399 15.6998 9.67853 15.5872L8.62682 14.5176ZM8.002 16.0036C8.002 16.5634 8.22826 17.0976 8.62682 17.4896L9.67853 16.42C9.56399 16.3074 9.502 16.1573 9.502 16.0036L8.002 16.0036ZM8.62682 17.4896C9.02496 17.8811 9.5623 18.0988 10.12 18.0988V16.5988C9.95207 16.5988 9.7935 16.5331 9.67853 16.42L8.62682 17.4896ZM6.016 14.0632C6.5737 14.0632 7.11104 13.8455 7.50918 13.454L6.45747 12.3844C6.3425 12.4975 6.18393 12.5632 6.016 12.5632L6.016 14.0632ZM7.50918 13.454C7.90774 13.062 8.134 12.5278 8.134 11.968L6.634 11.968C6.634 12.1217 6.57201 12.2718 6.45747 12.3844L7.50918 13.454ZM8.134 11.968C8.134 11.4082 7.90774 10.8739 7.50918 10.482L6.45747 11.5516C6.57201 11.6642 6.634 11.8142 6.634 11.968L8.134 11.968ZM7.50918 10.482C7.11104 10.0905 6.5737 9.8728 6.016 9.8728L6.016 11.3728C6.18393 11.3728 6.3425 11.4385 6.45747 11.5516L7.50918 10.482ZM6.016 9.8728C5.4583 9.8728 4.92096 10.0905 4.52282 10.482L5.57453 11.5516C5.6895 11.4385 5.84807 11.3728 6.016 11.3728L6.016 9.8728ZM4.52282 10.482C4.12426 10.8739 3.898 11.4082 3.898 11.968H5.398C5.398 11.8142 5.45999 11.6642 5.57453 11.5516L4.52282 10.482ZM3.898 11.968C3.898 12.5278 4.12426 13.062 4.52282 13.454L5.57453 12.3844C5.45999 12.2718 5.398 12.1218 5.398 11.968H3.898ZM4.52282 13.454C4.92096 13.8455 5.4583 14.0632 6.016 14.0632V12.5632C5.84807 12.5632 5.6895 12.4975 5.57453 12.3844L4.52282 13.454ZM14.224 14.0632C14.7817 14.0632 15.319 13.8455 15.7172 13.454L14.6655 12.3844C14.5505 12.4975 14.3919 12.5632 14.224 12.5632L14.224 14.0632ZM15.7172 13.454C16.1157 13.062 16.342 12.5278 16.342 11.968H14.842C14.842 12.1217 14.78 12.2718 14.6655 12.3844L15.7172 13.454ZM16.342 11.968C16.342 11.4082 16.1157 10.8739 15.7172 10.482L14.6655 11.5516C14.78 11.6642 14.842 11.8143 14.842 11.968H16.342ZM15.7172 10.482C15.319 10.0905 14.7817 9.8728 14.224 9.8728L14.224 11.3728C14.3919 11.3728 14.5505 11.4385 14.6655 11.5516L15.7172 10.482ZM14.224 9.8728C13.6663 9.8728 13.129 10.0905 12.7308 10.482L13.7825 11.5516C13.8975 11.4385 14.0561 11.3728 14.224 11.3728L14.224 9.8728ZM12.7308 10.482C12.3323 10.8739 12.106 11.4082 12.106 11.968L13.606 11.968C13.606 11.8142 13.668 11.6642 13.7825 11.5516L12.7308 10.482ZM12.106 11.968C12.106 12.5278 12.3323 13.062 12.7308 13.454L13.7825 12.3844C13.668 12.2718 13.606 12.1217 13.606 11.968L12.106 11.968ZM12.7308 13.454C13.129 13.8455 13.6663 14.0632 14.224 14.0632V12.5632C14.0561 12.5632 13.8975 12.4975 13.7825 12.3844L12.7308 13.454ZM10.12 21.686L19.24 21.686L19.24 20.186L10.12 20.186L10.12 21.686Z" fill="#FAF9F9"/>
<path d="M26.9355 7.66211C26.5547 7.74414 26.2031 7.81738 25.8809 7.88184C25.7402 7.91113 25.5996 7.9375 25.459 7.96094C25.3242 7.98438 25.1953 8.00781 25.0723 8.03125C24.9492 8.04883 24.8379 8.06348 24.7383 8.0752C24.6445 8.08691 24.5742 8.09277 24.5273 8.09277C24.4277 8.09277 24.3428 8.0752 24.2725 8.04004C24.208 7.99902 24.1758 7.91992 24.1758 7.80273V6.81836C24.1758 6.70703 24.2227 6.60742 24.3164 6.51953C24.4102 6.42578 24.5566 6.37891 24.7559 6.37891H35.6631C35.8623 6.37891 36.0088 6.42578 36.1025 6.51953C36.1963 6.60742 36.2432 6.70703 36.2432 6.81836V7.80273C36.2432 7.91992 36.208 7.99902 36.1377 8.04004C36.0732 8.0752 35.9912 8.09277 35.8916 8.09277C35.8389 8.09277 35.7656 8.08691 35.6719 8.0752C35.5781 8.06348 35.4697 8.04883 35.3467 8.03125C35.2236 8.00781 35.0918 7.98438 34.9512 7.96094C34.8164 7.9375 34.6787 7.91113 34.5381 7.88184C34.2158 7.81738 33.8643 7.74414 33.4834 7.66211V17.7959C33.4834 17.9951 33.4658 18.1709 33.4307 18.3232C33.3955 18.4697 33.3281 18.5957 33.2285 18.7012C33.1348 18.8008 33.0029 18.877 32.833 18.9297C32.6631 18.9766 32.4463 19 32.1826 19H28.2627C27.9873 19 27.7617 18.9736 27.5859 18.9209C27.416 18.8682 27.2812 18.792 27.1816 18.6924C27.0879 18.5928 27.0234 18.4668 26.9883 18.3145C26.9531 18.1621 26.9355 17.9834 26.9355 17.7783V7.66211ZM32.7363 7.47754L32.0508 7.32812V18.2617C32.1914 18.2617 32.3057 18.2588 32.3936 18.2529C32.4814 18.2412 32.5518 18.2178 32.6045 18.1826C32.6572 18.1416 32.6924 18.0859 32.71 18.0156C32.7275 17.9395 32.7363 17.834 32.7363 17.6992V7.47754ZM42.2441 6.37891C42.3496 6.37891 42.4404 6.39355 42.5166 6.42285C42.5928 6.44629 42.6602 6.49023 42.7188 6.55469C42.7832 6.61914 42.8418 6.7041 42.8945 6.80957C42.9473 6.91504 43.0029 7.04395 43.0615 7.19629L47.0957 17.9717C47.125 18.0537 47.1455 18.127 47.1572 18.1914C47.1689 18.2559 47.1748 18.3203 47.1748 18.3848C47.1748 18.5957 47.1104 18.751 46.9814 18.8506C46.8584 18.9502 46.7266 19 46.5859 19H41.6025C41.4502 19 41.3213 18.9824 41.2158 18.9473C41.1162 18.9062 41.0312 18.8594 40.9609 18.8066C40.8906 18.7539 40.835 18.6982 40.7939 18.6396C40.7588 18.5811 40.7354 18.5283 40.7236 18.4814L40.627 18.1738H38.1572L38.0957 18.4375C38.0781 18.5254 38.0576 18.6045 38.0342 18.6748C38.0107 18.7393 37.9814 18.7979 37.9463 18.8506C37.9111 18.8975 37.8613 18.9355 37.7969 18.9648C37.7383 18.9883 37.6592 19 37.5596 19H36.6543C36.4668 19 36.373 18.9268 36.373 18.7803C36.373 18.7275 36.3818 18.666 36.3994 18.5957C36.4229 18.5195 36.4521 18.4316 36.4873 18.332L40.1611 7.21387C40.249 6.93848 40.3486 6.7334 40.46 6.59863C40.5713 6.46387 40.7295 6.39062 40.9346 6.37891H42.2441ZM38.4297 17.0928H40.3281L39.3525 13.6562L38.4297 17.0928ZM42.3408 7.39844C42.2939 7.27539 42.2354 7.19922 42.165 7.16992C42.1006 7.13477 41.9863 7.11719 41.8223 7.11719H41.5146L45.6719 18.2617H46.0938C46.1992 18.2617 46.2695 18.2412 46.3047 18.2002C46.3457 18.1533 46.3428 18.0713 46.2959 17.9541L42.3408 7.39844ZM57.0342 16.6094C56.8115 16.7324 56.583 16.835 56.3486 16.917C56.1201 16.999 55.8828 17.0664 55.6367 17.1191V17.7783C55.6367 17.9658 55.6162 18.1357 55.5752 18.2881C55.5342 18.4346 55.4609 18.5605 55.3555 18.666C55.2559 18.7715 55.1211 18.8535 54.9512 18.9121C54.7871 18.9707 54.5791 19 54.3271 19H50.4336C50.1523 19 49.9238 18.9736 49.748 18.9209C49.5723 18.8682 49.4346 18.792 49.335 18.6924C49.2354 18.5928 49.168 18.4668 49.1328 18.3145C49.0977 18.1621 49.0801 17.9834 49.0801 17.7783V7.60938C49.0801 7.4043 49.0977 7.22559 49.1328 7.07324C49.168 6.9209 49.2354 6.79492 49.335 6.69531C49.4346 6.58984 49.5723 6.51074 49.748 6.45801C49.9238 6.40527 50.1523 6.37891 50.4336 6.37891H54.3535C54.7754 6.37891 55.1885 6.41406 55.5928 6.48438C56.0029 6.55469 56.3896 6.66895 56.7529 6.82715C57.1221 6.97949 57.459 7.18457 57.7637 7.44238C58.0742 7.7002 58.3408 8.01953 58.5635 8.40039C58.792 8.77539 58.9678 9.21484 59.0908 9.71875C59.2197 10.2227 59.2842 10.8027 59.2842 11.459C59.2842 12.0215 59.249 12.5312 59.1787 12.9883C59.1084 13.4453 59.0117 13.8584 58.8887 14.2275C58.7656 14.5967 58.6162 14.9248 58.4404 15.2119C58.2705 15.4932 58.0801 15.7422 57.8691 15.959L59.627 18.2793C59.6855 18.3613 59.7148 18.4404 59.7148 18.5166C59.7148 18.6045 59.6826 18.6807 59.6182 18.7451C59.5596 18.8096 59.4951 18.8623 59.4248 18.9033L58.8975 19.2109C58.8564 19.2344 58.8125 19.252 58.7656 19.2637C58.7246 19.2812 58.6807 19.29 58.6338 19.29C58.5693 19.29 58.5049 19.2695 58.4404 19.2285C58.376 19.1875 58.3174 19.1172 58.2646 19.0176L57.0342 16.6094ZM58.0449 11.6172C58.0449 11.0898 57.998 10.6035 57.9043 10.1582C57.8105 9.71289 57.667 9.32031 57.4736 8.98047C57.2803 8.64062 57.0312 8.35938 56.7266 8.13672C56.4219 7.91406 56.0586 7.76172 55.6367 7.67969V15.9678C56.0586 15.874 56.4219 15.7041 56.7266 15.458C57.0312 15.2061 57.2803 14.8926 57.4736 14.5176C57.667 14.1426 57.8105 13.7119 57.9043 13.2256C57.998 12.7334 58.0449 12.1973 58.0449 11.6172ZM54.8896 7.54785C54.7725 7.54199 54.6494 7.53906 54.5205 7.53906C54.3975 7.5332 54.292 7.53027 54.2041 7.53027V18.2617C54.3447 18.2617 54.459 18.2588 54.5469 18.2529C54.6348 18.2412 54.7051 18.2178 54.7578 18.1826C54.8105 18.1416 54.8457 18.0859 54.8633 18.0156C54.8809 17.9395 54.8896 17.834 54.8896 17.6992V7.54785ZM67.2803 19.3428C66.8115 19.3428 66.3398 19.3018 65.8652 19.2197C65.3965 19.1377 64.9453 18.9971 64.5117 18.7979C64.0781 18.5986 63.6738 18.335 63.2988 18.0068C62.9238 17.6729 62.5957 17.2598 62.3145 16.7676C62.0391 16.2695 61.8223 15.6836 61.6641 15.0098C61.5059 14.3301 61.4268 13.542 61.4268 12.6455C61.4268 11.7549 61.5059 10.9697 61.6641 10.29C61.8223 9.61035 62.0391 9.02441 62.3145 8.53223C62.5957 8.03418 62.9238 7.62109 63.2988 7.29297C63.6738 6.96484 64.0781 6.7041 64.5117 6.51074C64.9453 6.31152 65.3965 6.1709 65.8652 6.08887C66.3398 6.00684 66.8115 5.96582 67.2803 5.96582C67.749 5.96582 68.2207 6.00684 68.6953 6.08887C69.1699 6.1709 69.624 6.31152 70.0576 6.51074C70.4912 6.7041 70.8955 6.96484 71.2705 7.29297C71.6455 7.62109 71.9707 8.03418 72.2461 8.53223C72.5215 9.02441 72.7383 9.61035 72.8965 10.29C73.0547 10.9697 73.1338 11.7549 73.1338 12.6455C73.1338 13.5361 73.0547 14.3213 72.8965 15.001C72.7383 15.6807 72.5215 16.2695 72.2461 16.7676C71.9707 17.2598 71.6455 17.6729 71.2705 18.0068C70.8955 18.335 70.4912 18.5986 70.0576 18.7979C69.624 18.9971 69.1699 19.1377 68.6953 19.2197C68.2207 19.3018 67.749 19.3428 67.2803 19.3428ZM68.0713 12.6455C68.0713 13.3779 68.124 13.9902 68.2295 14.4824C68.3408 14.9746 68.4873 15.3701 68.6689 15.6689C68.8506 15.9678 69.0527 16.1816 69.2754 16.3105C69.5039 16.4336 69.7383 16.4951 69.9785 16.4951C70.2188 16.4951 70.4531 16.4336 70.6816 16.3105C70.9102 16.1816 71.1123 15.9678 71.2881 15.6689C71.4697 15.3701 71.6133 14.9746 71.7188 14.4824C71.8301 13.9902 71.8857 13.3779 71.8857 12.6455C71.8857 11.9131 71.8301 11.3008 71.7188 10.8086C71.6133 10.3164 71.4697 9.9209 71.2881 9.62207C71.1123 9.32324 70.9102 9.1123 70.6816 8.98926C70.4531 8.86035 70.2188 8.7959 69.9785 8.7959C69.7383 8.7959 69.5039 8.86035 69.2754 8.98926C69.0527 9.1123 68.8506 9.32324 68.6689 9.62207C68.4873 9.9209 68.3408 10.3164 68.2295 10.8086C68.124 11.3008 68.0713 11.9131 68.0713 12.6455ZM67.3242 12.6455C67.3242 11.9131 67.3828 11.2803 67.5 10.7471C67.623 10.2139 67.7783 9.77148 67.9658 9.41992C68.1533 9.06836 68.3643 8.80176 68.5986 8.62012C68.8389 8.43262 69.0791 8.31543 69.3193 8.26855C68.9736 8.28613 68.6367 8.37695 68.3086 8.54102C67.9805 8.70508 67.6875 8.95996 67.4297 9.30566C67.1777 9.65137 66.9756 10.0996 66.8232 10.6504C66.6709 11.1953 66.5947 11.8604 66.5947 12.6455C66.5947 13.4307 66.6709 14.0986 66.8232 14.6494C66.9756 15.1943 67.1777 15.6396 67.4297 15.9854C67.6875 16.3311 67.9805 16.5859 68.3086 16.75C68.6367 16.9141 68.9736 17.0049 69.3193 17.0225C69.0791 16.9814 68.8389 16.8672 68.5986 16.6797C68.3643 16.4922 68.1533 16.2227 67.9658 15.8711C67.7783 15.5195 67.623 15.0771 67.5 14.5439C67.3828 14.0107 67.3242 13.3779 67.3242 12.6455Z" fill="#FAF9F9"/>
</svg>
